<?xml version="1.0" encoding="iso-8859-1"?>
<!-- Generator: Adobe Illustrator 22.1.0, SVG Export Plug-In . SVG Version: 6.00 Build 0)  -->
<svg xmlns="http://www.w3.org/2000/svg" xmlns:xlink="http://www.w3.org/1999/xlink" version="1.1" id="Layer_1_1_" x="0px" y="0px" viewBox="0 0 64 64" style="enable-background:new 0 0 64 64;" xml:space="preserve" width="512" height="512">
<g>
	<path d="M58,1H40c-2.757,0-5,2.243-5,5v36c0,2.757,2.243,5,5,5h18c2.757,0,5-2.243,5-5V6C63,3.243,60.757,1,58,1z M40,3h18   c1.654,0,3,1.346,3,3v3H37V6C37,4.346,38.346,3,40,3z M61,11v26H37V11H61z M58,45H40c-1.654,0-3-1.346-3-3v-3h24v3   C61,43.654,59.654,45,58,45z"/>
	<rect x="46" y="5" width="6" height="2"/>
	<rect x="47" y="41" width="4" height="2"/>
	<path d="M59,35V13H39v22H59z M41,15h16v18H41V15z"/>
	<rect x="54" y="5" width="2" height="2"/>
	<rect x="42" y="5" width="2" height="2"/>
	<path d="M49,23c-1.654,0-3,1.346-3,3s1.346,3,3,3s3-1.346,3-3S50.654,23,49,23z M49,27c-0.551,0-1-0.449-1-1s0.449-1,1-1   s1,0.449,1,1S49.551,27,49,27z"/>
	<path d="M49,19c-3.86,0-7,3.14-7,7h2c0-2.757,2.243-5,5-5s5,2.243,5,5h2C56,22.14,52.86,19,49,19z"/>
	<path d="M50,51H33V16c0-1.654-1.346-3-3-3H4c-1.654,0-3,1.346-3,3v44c0,1.654,1.346,3,3,3h26c1.654,0,3-1.346,3-3v-1h17   c2.206,0,4-1.794,4-4S52.206,51,50,51z M31,60c0,0.552-0.449,1-1,1H4c-0.551,0-1-0.448-1-1V16c0-0.551,0.449-1,1-1h26   c0.551,0,1,0.449,1,1v35h-7.071c-0.248-1.732-1.134-3.311-2.516-4.435c-1.644-1.336-3.797-1.851-5.908-1.409   c-2.647,0.552-4.797,2.701-5.349,5.349c-0.44,2.111,0.074,4.265,1.411,5.908C12.903,58.058,14.883,59,17,59h14V60z M50,57H17   c-1.512,0-2.927-0.674-3.882-1.849c-0.955-1.174-1.321-2.719-1.004-4.238c0.392-1.881,1.919-3.407,3.799-3.8   c0.358-0.074,0.718-0.111,1.074-0.111c1.153,0,2.267,0.386,3.165,1.116C21.326,49.073,22,50.488,22,52v1h28c1.103,0,2,0.897,2,2   S51.103,57,50,57z"/>
	<path d="M17,49c-1.654,0-3,1.346-3,3s1.346,3,3,3v-2c-0.551,0-1-0.448-1-1s0.449-1,1-1s1,0.448,1,1h2C20,50.346,18.654,49,17,49z"/>
	<path d="M29,17H5v12h24V17z M27,27H7v-8h20V27z"/>
	<path d="M13,35c0-2.206-1.794-4-4-4s-4,1.794-4,4c0,2.206,1.794,4,4,4S13,37.206,13,35z M9,37c-1.103,0-2-0.897-2-2s0.897-2,2-2   s2,0.897,2,2S10.103,37,9,37z"/>
</g>
</svg>
