<?xml version="1.0" standalone="no"?>
<!DOCTYPE svg PUBLIC "-//W3C//DTD SVG 20010904//EN"
 "http://www.w3.org/TR/2001/REC-SVG-20010904/DTD/svg10.dtd">
<svg version="1.0" xmlns="http://www.w3.org/2000/svg"
 width="510.000000pt" height="510.000000pt" viewBox="0 0 510.000000 510.000000"
 preserveAspectRatio="xMidYMid meet">
<metadata>
Created by potrace 1.15, written by Peter Selinger 2001-2017
</metadata>
<g transform="translate(0.000000,510.000000) scale(0.100000,-0.100000)"
fill="#000000" stroke="none">
<path d="M1256 4401 c5 -4 110 -76 233 -160 l224 -151 31 19 c17 10 139 76
271 146 132 71 249 134 260 142 16 11 -66 13 -505 13 -297 0 -520 -4 -514 -9z"/>
<path d="M2845 4393 c17 -9 147 -79 290 -155 l260 -140 30 17 c17 9 122 79
234 156 l205 139 -525 0 c-488 -1 -522 -2 -494 -17z"/>
<path d="M2197 4207 c-196 -105 -356 -195 -355 -199 2 -4 163 -115 358 -247
l355 -239 358 243 c197 133 359 244 361 246 4 3 -683 375 -713 386 -3 2 -167
-84 -364 -190z"/>
<path d="M3797 4208 c-147 -99 -266 -182 -265 -183 2 -1 220 -118 485 -259
l481 -256 176 2 176 3 -391 435 c-215 239 -392 436 -393 437 -1 1 -122 -79
-269 -179z"/>
<path d="M651 3948 l-390 -433 184 -3 185 -2 467 251 c258 138 471 254 475
258 4 3 -16 22 -44 41 -29 19 -146 99 -261 178 -114 78 -212 142 -217 142 -5
0 -184 -195 -399 -432z"/>
<path d="M1335 3744 c-198 -107 -376 -204 -395 -214 -35 -19 -28 -19 684 -20
l719 0 -319 215 c-175 118 -321 215 -324 214 -3 0 -167 -88 -365 -195z"/>
<path d="M3084 3727 l-310 -212 358 -3 c197 -1 521 -1 720 0 l363 3 -398 213
c-219 116 -403 212 -410 211 -7 0 -152 -96 -323 -212z"/>
<path d="M250 3375 c0 -9 462 -606 466 -602 3 3 -66 402 -97 555 l-10 52 -180
0 c-98 0 -179 -2 -179 -5z"/>
<path d="M765 3361 c35 -33 858 -691 861 -688 3 3 -184 535 -233 665 l-16 42
-316 0 c-310 0 -315 0 -296 -19z"/>
<path d="M1520 3373 c0 -19 268 -758 274 -756 4 2 129 152 278 335 149 183
289 354 310 381 l40 47 -451 0 c-248 0 -451 -3 -451 -7z"/>
<path d="M2700 3375 c0 -5 469 -583 578 -714 l46 -53 52 148 c29 82 90 256
137 387 l84 237 -448 0 c-247 0 -449 -2 -449 -5z"/>
<path d="M3608 3028 c-69 -194 -124 -354 -123 -356 2 -3 836 662 884 704 2 2
-140 4 -315 4 l-320 0 -126 -352z"/>
<path d="M4500 3372 c0 -4 -25 -142 -55 -307 -30 -165 -53 -300 -52 -301 1 -2
77 95 168 214 92 119 199 259 238 310 l72 92 -186 0 c-102 0 -185 -4 -185 -8z"/>
<path d="M2199 2904 c-195 -239 -353 -441 -353 -447 4 -37 709 -1995 715
-1985 25 44 708 1992 702 2001 -10 16 -704 867 -707 867 -1 0 -162 -196 -357
-436z"/>
<path d="M780 3169 c1 -8 27 -154 58 -326 l57 -311 725 -945 c399 -520 726
-944 728 -943 1 2 -140 404 -314 895 l-317 891 -451 361 c-248 199 -459 369
-468 377 -15 13 -18 13 -18 1z"/>
<path d="M3860 2803 l-465 -373 -317 -892 c-174 -491 -316 -894 -314 -895 2
-3 1432 1855 1448 1881 9 15 120 626 116 641 -2 7 -212 -156 -468 -362z"/>
</g>
</svg>
