<svg height="512pt" viewBox="-10 0 512 512" width="512pt" xmlns="http://www.w3.org/2000/svg"><path d="m239.917969 42.519531c5.546875 0 10.046875-4.5 10.046875-10.046875v-22.425781c0-5.550781-4.5-10.046875-10.046875-10.046875s-10.042969 4.496094-10.042969 10.046875v22.425781c0 5.546875 4.496094 10.046875 10.042969 10.046875zm0 0"/><path d="m481.007812 207.445312h-22.429687c-5.546875 0-10.042969 4.5-10.042969 10.046876 0 5.546874 4.496094 10.046874 10.042969 10.046874h22.429687c5.546876 0 10.042969-4.5 10.042969-10.046874 0-5.546876-4.496093-10.046876-10.042969-10.046876zm0 0"/><path d="m42.515625 217.492188c0-5.546876-4.496094-10.046876-10.042969-10.046876h-22.425781c-5.546875 0-10.046875 4.5-10.046875 10.046876 0 5.546874 4.5 10.046874 10.046875 10.046874h22.425781c5.546875 0 10.042969-4.5 10.042969-10.046874zm0 0"/><path d="m396.175781 99.3125c2.574219 0 5.144531-.980469 7.105469-2.941406l15.855469-15.859375c3.925781-3.921875 3.925781-10.28125 0-14.207031-3.921875-3.921876-10.28125-3.921876-14.207031 0l-15.855469 15.859374c-3.921875 3.921876-3.921875 10.285157 0 14.207032 1.960937 1.960937 4.53125 2.941406 7.101562 2.941406zm0 0"/><path d="m90.761719 82.164062-15.855469-15.859374c-3.925781-3.921876-10.285156-3.921876-14.207031 0-3.925781 3.925781-3.925781 10.285156 0 14.207031l15.855469 15.859375c1.964843 1.960937 4.535156 2.941406 7.105468 2.941406 2.570313 0 5.140625-.980469 7.101563-2.941406 3.925781-3.925782 3.925781-10.285156 0-14.207032zm0 0"/><path d="m425.707031 351.667969c-3.925781-3.921875-10.28125-3.921875-14.207031 0-3.921875 3.921875-3.921875 10.28125 0 14.207031l15.859375 15.855469c1.960937 1.960937 4.53125 2.945312 7.101563 2.945312 2.570312 0 5.140624-.984375 7.101562-2.945312 3.925781-3.921875 3.925781-10.28125 0-14.207031zm0 0"/><path d="m54.132812 351.667969-15.859374 15.855469c-3.921876 3.925781-3.921876 10.285156 0 14.207031 1.960937 1.960937 4.53125 2.945312 7.101562 2.945312s5.140625-.984375 7.105469-2.945312l15.855469-15.855469c3.925781-3.925781 3.925781-10.285156 0-14.207031-3.921876-3.925781-10.28125-3.925781-14.203126 0zm0 0"/><path d="m316.132812 381.867188c52.75-26.109376 89.117188-80.503907 89.117188-143.242188 0-88.070312-71.652344-159.722656-159.722656-159.722656-88.074219 0-159.722656 71.652344-159.722656 159.722656 0 65.140625 39.203124 121.289062 95.25 146.117188v72.296874c0 7.335938 5.96875 13.304688 13.304687 13.304688h102.332031c7.335938 0 13.304688-5.96875 13.304688-13.304688v-72.234374zm-154.09375-88.335938c-8.28125 0-15.019531-6.734375-15.019531-15.015625s6.738281-15.019531 15.019531-15.019531 15.015626 6.738281 15.015626 15.019531-6.734376 15.015625-15.015626 15.015625zm83.480469 104.816406h.003907.003906c15.394531 0 30.28125-2.195312 44.378906-6.277344v22.796876h-88.761719v-22.796876c14.09375 4.082032 28.984375 6.277344 44.375 6.277344zm.003907-133.304687c-16.425782 0-29.789063-13.363281-29.789063-29.785157 0-16.425781 13.363281-29.789062 29.789063-29.789062 16.425781 0 29.785156 13.363281 29.785156 29.789062 0 16.421876-13.359375 29.785157-29.785156 29.785157zm71.640624 13.46875c0-8.277344 6.738282-15.015625 15.019532-15.015625 8.277344 0 15.015625 6.738281 15.015625 15.015625 0 8.28125-6.738281 15.019531-15.015625 15.019531-8.28125 0-15.019532-6.738281-15.019532-15.019531zm-116.019531 171.742187v-15.296875h88.761719v15.296875zm117.890625-92.964844v-33.082031l3.710938-11.882812c3.003906.839843 6.167968 1.296875 9.4375 1.296875 19.359375 0 35.105468-15.75 35.105468-35.105469 0-19.359375-15.746093-35.109375-35.105468-35.109375s-35.109375 15.75-35.109375 35.109375c0 8.542969 3.070312 16.382813 8.164062 22.476563l-5.835937 18.6875c-.304688.972656-.457032 1.980468-.457032 2.996093v44.953125c-13.527343 5.621094-28.117187 9.175782-43.378906 10.265625v-93.777343c22.707032-4.660157 39.835938-24.796876 39.835938-48.863282 0-27.5-22.375-49.875-49.878906-49.875-27.503907 0-49.878907 22.375-49.878907 49.875 0 24.066406 17.128907 44.203125 39.832031 48.863282v93.773437c-14.074218-1.003906-27.578124-4.105469-40.199218-8.992187v-46.222657c0-1.015625-.15625-2.023437-.457032-2.992187l-5.839843-18.691406c5.09375-6.09375 8.164062-13.933594 8.164062-22.480469 0-19.355469-15.75-35.105469-35.109375-35.105469-19.355468 0-35.105468 15.75-35.105468 35.105469 0 19.359375 15.75 35.109375 35.105468 35.109375 3.273438 0 6.433594-.457032 9.441406-1.296875l3.707032 11.882812v34.996094c-41.410156-24.253906-69.289063-69.21875-69.289063-120.578125 0-76.992188 62.636719-139.632812 139.632813-139.632812 76.992187 0 139.628906 62.640624 139.628906 139.632812 0 50.039062-26.460938 94.007812-66.121094 118.664062zm0 0"/><path d="m290.425781 133.355469c-28.976562-16.9375-64.488281-16.179688-92.6875 1.980469-4.664062 3.003906-6.011719 9.21875-3.007812 13.886718 1.921875 2.980469 5.15625 4.605469 8.457031 4.605469 1.863281 0 3.746094-.515625 5.425781-1.601563 21.804688-14.039062 49.269531-14.625 71.671875-1.527343 4.792969 2.800781 10.945313 1.1875 13.742188-3.601563 2.800781-4.789062 1.1875-10.941406-3.601563-13.742187zm0 0"/><path d="m327.410156 161.710938c-1.84375-5.230469-7.585937-7.976563-12.816406-6.128907-5.230469 1.84375-7.972656 7.582031-6.128906 12.816407l.078125.214843c1.453125 4.125 5.332031 6.707031 9.472656 6.707031 1.109375 0 2.238281-.1875 3.34375-.578124 5.230469-1.84375 7.972656-7.582032 6.128906-12.816407zm0 0"/><path d="m309.386719 498.351562c-1.847657-5.234374-7.585938-7.976562-12.816407-6.128906-5.230468 1.84375-7.976562 7.582032-6.128906 12.8125l.074219.21875c1.457031 4.125 5.335937 6.703125 9.472656 6.703125 1.109375 0 2.238281-.183593 3.34375-.574219 5.230469-1.847656 7.976563-7.582031 6.128907-12.816406zm0 0"/><path d="m258.527344 491.910156h-67.429688c-5.546875 0-10.042968 4.496094-10.042968 10.042969s4.496093 10.046875 10.042968 10.046875h67.429688c5.546875 0 10.046875-4.5 10.046875-10.046875s-4.496094-10.042969-10.046875-10.042969zm0 0"/></svg>