<svg height="511pt" viewBox="1 -4 511.999 511" width="511pt" xmlns="http://www.w3.org/2000/svg"><path d="m31.582031 313.082031h80.148438v15.074219h-80.148438zm0 0"/><path d="m63.640625 353.15625h16.03125v15.074219h-16.03125zm0 0"/><path d="m95.699219 385.21875h16.03125v15.070312h-16.03125zm0 0"/><path d="m31.582031 385.21875h16.027344v15.070312h-16.027344zm0 0"/><path d="m63.640625 417.277344h16.03125v15.074218h-16.03125zm0 0"/><path d="m167.355469 136.273438h-15.070313c0-26.78125-21.789062-48.566407-48.570312-48.566407-26.777344 0-48.566406 21.785157-48.566406 48.566407h-15.074219c0-35.089844 28.550781-63.640626 63.640625-63.640626 35.09375 0 63.640625 28.550782 63.640625 63.640626zm0 0"/><path d="m135.296875 136.273438h-15.074219c0-9.101563-7.402344-16.507813-16.507812-16.507813-9.101563 0-16.507813 7.40625-16.507813 16.507813h-15.074219c0-17.414063 14.167969-31.582032 31.582032-31.582032 17.414062 0 31.582031 14.167969 31.582031 31.582032zm0 0"/><path d="m455.894531 120.246094h-15.070312v-72.613282h-40.554688v-15.074218h55.625zm0 0"/><path d="m487.953125 369.1875v-368.6875h-111.726563v15.070312h96.65625v169.273438h-209.347656v-169.273438h88.644532v-15.070312h-328.132813v69.339844c-15.519531 18.660156-24.046875 42.109375-24.046875 66.433594 0 24.320312 8.523438 47.769531 24.046875 66.433593v62.285157h-24.046875v103.714843h15.070312v-88.644531h113.167969v209.347656h-113.167969v-96.65625h-15.070312v111.730469h143.3125v-80.152344h240.925781v-15.070312h-240.925781v-25.003907h32.539062v-15.070312h-32.539062v-104.195312h-104.195312v-47.542969c18.226562 14.472656 40.980468 22.542969 64.597656 22.542969 9.355468 0 18.558594-1.246094 27.402344-3.707032l36.238281 15.648438v-33.914063c6.867187-5.355469 12.921875-11.4375 18.09375-18.105469h63.015625v56.585938h15.070312v-56.585938h209.347656v169.273438h-209.347656v-88.644531h-15.070312v88.644531h-48.570313v15.074219h297.03125v25h-88.640625v15.074219h103.714844v-55.148438zm-292.683594-184.34375c7.980469-14.886719 12.164063-31.449219 12.164063-48.570312 0-21.878907-6.730469-42.804688-19.457032-60.503907l-12.238281 8.800781c10.875 15.121094 16.621094 33 16.621094 51.703126 0 18.273437-5.5625 35.808593-16.128906 50.765624-5.570313 8.03125-12.582031 15.136719-20.832031 21.121094l-3.113282 2.253906v18.589844l-20.242187-8.738281-2.660157.820313c-8.226562 2.542968-16.859374 3.832031-25.667968 3.832031-25.304688 0-49.457032-10.824219-66.253906-29.683594-14.4375-16.28125-22.390626-37.21875-22.390626-58.960937 0-21.738282 7.953126-42.675782 22.378907-58.945313 16.808593-18.871094 40.964843-29.695313 66.265625-29.695313 18.707031 0 36.585937 5.746094 51.707031 16.621094l8.800781-12.238281c-17.699218-12.730469-38.625-19.457031-60.507812-19.457031-23.613282 0-46.367188 8.066406-64.597656 22.546875v-39.535157h209.347656v169.273438zm0 0"/><path d="m31.582031 353.15625h16.027344v15.074219h-16.027344zm0 0"/><path d="m95.699219 353.15625h16.03125v15.074219h-16.03125zm0 0"/><path d="m63.640625 385.21875h16.03125v15.070312h-16.03125zm0 0"/><path d="m31.582031 417.277344h16.027344v15.074218h-16.027344zm0 0"/><path d="m95.699219 417.277344h16.03125v15.074218h-16.03125zm0 0"/><path d="m63.640625 449.335938h16.03125v15.074218h-16.03125zm0 0"/><path d="m95.699219 144.769531h16.03125v15.070313h-16.03125zm0 0"/><path d="m95.699219 176.828125h16.03125v15.074219h-16.03125zm0 0"/><path d="m440.34375 136.753906h16.03125v15.070313h-16.03125zm0 0"/><path d="m280.523438 304.589844v47.609375h47.613281v-15.070313h-32.539063v-32.539062zm0 0"/></svg>