<svg height="496pt" viewBox="-16 0 496 496" width="496pt" xmlns="http://www.w3.org/2000/svg"><path d="m374.742188 116.40625c-2.007813-2.078125-4.980469-2.910156-7.777344-2.179688-2.796875.730469-4.980469 2.917969-5.714844 5.714844-.730469 2.796875.101562 5.769532 2.183594 7.777344 7.511718 7.496094 11.734375 17.671875 11.734375 28.28125s-4.222657 20.785156-11.734375 28.28125c-2.082032 2.007812-2.914063 4.980469-2.183594 7.777344.734375 2.796875 2.917969 4.984375 5.714844 5.714844 2.796875.730468 5.769531-.101563 7.777344-2.179688 10.519531-10.496094 16.433593-24.742188 16.433593-39.601562 0-14.859376-5.914062-29.105469-16.433593-39.601563zm0 0"/><path d="m403.03125 88.121094c-2.007812-2.082032-4.980469-2.914063-7.78125-2.183594-2.796875.734375-4.980469 2.917969-5.710938 5.714844-.734374 2.796875.101563 5.769531 2.179688 7.78125 31.183594 31.265625 31.183594 81.867187 0 113.132812-2.078125 2.011719-2.914062 4.984375-2.179688 7.78125.730469 2.796875 2.914063 4.980469 5.710938 5.714844 2.800781.730469 5.773438-.101562 7.78125-2.183594 37.425781-37.515625 37.425781-98.242187 0-135.757812zm0 0"/><path d="m425.65625 65.496094c-3.148438-2.957032-8.078125-2.878906-11.132812.171875-3.054688 3.054687-3.132813 7.980469-.179688 11.132812 43.671875 43.769531 43.671875 114.628907 0 158.398438-2.078125 2.007812-2.914062 4.984375-2.179688 7.78125.730469 2.796875 2.914063 4.980469 5.710938 5.714843 2.796875.730469 5.773438-.105468 7.78125-2.183593 50.015625-49.972657 50.015625-131.035157 0-181.007813zm0 0"/><path d="m344 62.046875v-54.046875c0-4.417969-3.582031-8-8-8h-56c-4.417969 0-8 3.582031-8 8v24c0 4.417969 3.582031 8 8 8h24v16h-80v-16h24c4.417969 0 8-3.582031 8-8v-24c0-4.417969-3.582031-8-8-8h-56c-4.417969 0-8 3.582031-8 8v48h-16v-48c0-4.417969-3.582031-8-8-8h-56c-4.417969 0-8 3.582031-8 8v24c0 4.417969 3.582031 8 8 8h24v16h-80v-16h24c4.417969 0 8-3.582031 8-8v-24c0-4.417969-3.582031-8-8-8h-56c-4.417969 0-8 3.582031-8 8v54.046875c-5.074219 4.445313-7.9882812 10.855469-8 17.601563v408.351562c0 4.417969 3.582031 8 8 8h56c4.417969 0 8-3.582031 8-8v-16h208v16c0 4.417969 3.582031 8 8 8h56c4.417969 0 8-3.582031 8-8v-408.367188c-.015625-6.738281-2.929688-13.144531-8-17.585937zm-328 393.953125v-376.367188c.003906-4.214843 3.417969-7.628906 7.632812-7.632812h304.734376c4.214843.003906 7.628906 3.417969 7.632812 7.632812v376.367188zm296-432h-24v-8h40v40h-8v-24c0-4.417969-3.582031-8-8-8zm-112-8h40v8h-24c-4.417969 0-8 3.582031-8 8v24h-8zm-64 8h-24v-8h40v40h-8v-24c0-4.417969-3.582031-8-8-8zm-112-8h40v8h-24c-4.417969 0-8 3.582031-8 8v24h-8zm32 464h-40v-8h40zm280 0h-40v-8h40zm0 0"/><path d="m320 176h-288c-4.417969 0-8 3.582031-8 8v248c0 4.417969 3.582031 8 8 8h288c4.417969 0 8-3.582031 8-8v-248c0-4.417969-3.582031-8-8-8zm-8 248h-272v-232h272zm0 0"/><path d="m296 88c-17.671875 0-32 14.328125-32 32s14.328125 32 32 32 32-14.328125 32-32-14.328125-32-32-32zm0 48c-8.835938 0-16-7.164062-16-16s7.164062-16 16-16 16 7.164062 16 16-7.164062 16-16 16zm0 0"/><path d="m216 152c17.671875 0 32-14.328125 32-32s-14.328125-32-32-32-32 14.328125-32 32 14.328125 32 32 32zm0-48c8.835938 0 16 7.164062 16 16s-7.164062 16-16 16-16-7.164062-16-16 7.164062-16 16-16zm0 0"/><path d="m32 152h136c4.417969 0 8-3.582031 8-8v-24c0-4.417969-3.582031-8-8-8h-136c-4.417969 0-8 3.582031-8 8v24c0 4.417969 3.582031 8 8 8zm8-24h120v8h-120zm0 0"/><path d="m32 104h24c4.417969 0 8-3.582031 8-8s-3.582031-8-8-8h-24c-4.417969 0-8 3.582031-8 8s3.582031 8 8 8zm0 0"/><path d="m80 104h88c4.417969 0 8-3.582031 8-8s-3.582031-8-8-8h-88c-4.417969 0-8 3.582031-8 8s3.582031 8 8 8zm0 0"/><path d="m56 248h240c4.417969 0 8-3.582031 8-8v-32c0-4.417969-3.582031-8-8-8s-8 3.582031-8 8v24h-224v-24c0-4.417969-3.582031-8-8-8s-8 3.582031-8 8v32c0 4.417969 3.582031 8 8 8zm0 0"/><path d="m56 408h240c4.417969 0 8-3.582031 8-8s-3.582031-8-8-8h-240c-4.417969 0-8 3.582031-8 8s3.582031 8 8 8zm0 0"/></svg>