<svg height="512pt" viewBox="-19 0 512 512.00036" width="512pt" xmlns="http://www.w3.org/2000/svg"><path d="m276.628906 3.699219c-106.019531 1.476562-192.410156 88.53125-192.410156 195.167969 0 66.445312 33.339844 127.71875 89.179688 163.902343 6.773437 4.390625 12.410156 10.335938 16.289062 17.191407l29.609375 52.304687c2.074219 3.664063 6.726563 4.953125 10.390625 2.878906s4.949219-6.726562 2.875-10.390625l-29.605469-52.304687c-5.085937-8.980469-12.441406-16.753907-21.269531-22.472657-51.5625-33.417968-83.121094-90.710937-82.203125-153.765624 1.390625-96.402344 80.949219-175.925782 177.355469-177.269532 100.8125-1.34375 182.507812 80.195313 182.507812 179.925782 0 61.238281-30.722656 117.71875-82.1875 151.085937-8.855468 5.738281-16.21875 13.523437-21.304687 22.5l-67.359375 118.992187c-3.996094 7.066407-14.171875 7.074219-18.179688 0l-22.730468-40.152343c-2.074219-3.664063-6.726563-4.953125-10.390626-2.878907-3.664062 2.074219-4.953124 6.722657-2.878906 10.386719l22.734375 40.15625c9.839844 17.386719 34.871094 17.394531 44.710938 0l67.359375-118.992187c3.878906-6.851563 9.527344-12.804688 16.332031-17.21875 55.816406-36.191406 89.140625-97.453125 89.140625-163.878906 0-108.515626-89.023438-196.683594-197.964844-195.167969zm0 0"/><path d="m406.238281 254.855469c4.199219 1.578125 8.890625-.546875 10.46875-4.75 41.089844-109.367188-57.324219-222.578125-172.84375-193.707031-78.730469 19.671874-126.359375 99.101562-106.699219 177.785156 16.347657 65.417968 74.792969 111.109375 142.136719 111.109375 48.933594 0 95.371094-24.382813 122.851563-66.464844 2.453125-3.757813 1.398437-8.796875-2.363282-11.253906-3.757812-2.453125-8.800781-1.394531-11.253906 2.363281-18.011718 27.585938-45.546875 47.179688-77.527344 55.171875-10.414062 2.601563-21.078124 3.921875-31.707031 3.921875-59.863281 0-111.824219-40.625-126.359375-98.789062-17.492187-70.015626 24.90625-140.582032 94.863282-158.0625 82.417968-20.597657 161.988281 41.675781 161.988281 126.566406 0 15.613281-2.796875 30.96875-8.308594 45.636718-1.578125 4.203126.546875 8.894532 4.753906 10.472657zm0 0"/><path d="m221.191406 287.859375c8.277344 0 16.066406-3.222656 21.921875-9.078125l36.292969-36.296875 36.296875 36.296875c5.855469 5.855469 13.640625 9.078125 21.917969 9.078125 27.347656 0 41.535156-33.304687 21.921875-52.921875l-36.296875-36.292969 36.296875-36.296875c5.855469-5.855468 9.082031-13.640625 9.082031-21.921875 0-27.308593-33.28125-41.558593-52.921875-21.921875l-36.296875 36.296875-36.296875-36.296875c-5.855469-5.855468-13.640625-9.078125-21.917969-9.078125-20.882812 0-35.792968 20.246094-29.613281 40.191407 1.246094 4.023437 5.519531 6.273437 9.539063 5.027343 4.019531-1.246093 6.269531-5.515625 5.023437-9.535156-4.886719-15.785156 14.722656-27.289063 26.191406-15.824219l37.722657 37.722656c5.171874 5.167969 13.535156 5.167969 18.710937-.003906l37.714844-37.71875c9.925781-9.917968 26.898437-2.800781 26.898437 11.140625 0 4.210938-1.640625 8.164063-4.617187 11.140625l-37.71875 37.71875c-5.179688 5.183594-5.160157 13.554688 0 18.714844l37.71875 37.71875c9.960937 9.960938 2.769531 26.894531-11.140625 26.894531-4.207032 0-8.164063-1.636719-11.136719-4.613281l-37.722656-37.722656c-5.179688-5.179688-13.554688-5.160156-18.710938.003906l-37.71875 37.71875c-2.976562 2.972656-6.933593 4.613281-11.140625 4.613281-13.898437 0-21.109375-16.929687-11.140625-26.894531l37.71875-37.71875c5.171875-5.171875 5.171875-13.539062 0-18.714844l-24.164062-24.164062c-2.976563-2.976563-7.804688-2.976563-10.78125 0-2.976563 2.976562-2.976563 7.804687 0 10.78125l22.742187 22.742187-36.296875 36.292969c-19.597656 19.597656-5.453125 52.921875 21.921875 52.921875zm0 0"/><path d="m88.121094 13.933594c3.203125-3.144532 3.253906-8.292969.105468-11.5-3.144531-3.203125-8.292968-3.25-11.496093-.105469-57.699219 56.617187-88.734375 158.875-72.390625 237.875.796875 3.84375 4.179687 6.488281 7.957031 6.488281 5.179687 0 9.011719-4.753906 7.96875-9.78125-15.230469-73.617187 14.109375-170.234375 67.855469-222.976562zm0 0"/><path d="m118.628906 44.664062c3.277344-3.070312 3.449219-8.214843.378906-11.496093-3.070312-3.277344-8.214843-3.449219-11.496093-.378907-50.007813 46.816407-76.90625 135.066407-61.433594 201.886719.871094 3.753907 4.21875 6.296875 7.914063 6.296875 5.246093 0 9.109374-4.882812 7.929687-9.96875-14.15625-61.121094 10.875-143.4375 56.707031-186.339844zm0 0"/></svg>